<svg width="578" height="365" viewBox="0 0 578 365" fill="none" xmlns="http://www.w3.org/2000/svg">
<line x1="234" y1="362.5" x2="336" y2="362.5" stroke="#6C6C6C" stroke-width="5"/>
<rect x="2.5" y="2.5" width="573" height="308" rx="12.5" fill="white" stroke="#525252" stroke-width="5"/>
<line x1="287.5" y1="317" x2="287.5" y2="355" stroke="#525252" stroke-width="5"/>
<rect x="25" y="25" width="522" height="20" rx="10" fill="#E6AF2E"/>
<rect x="25" y="83" width="254" height="8" rx="4" fill="#E6AF2E"/>
<rect x="25" y="97" width="254" height="8" rx="4" fill="#E6AF2E"/>
<rect x="25" y="111" width="254" height="8" rx="4" fill="#E6AF2E"/>
<rect x="25" y="125" width="254" height="8" rx="4" fill="#E6AF2E"/>
<rect x="25" y="139" width="254" height="9" rx="4.5" fill="#E6AF2E"/>
<rect x="25" y="153" width="128" height="9" rx="4.5" fill="#E6AF2E"/>
<rect x="25" y="217" width="254" height="8" rx="4" fill="#E6AF2E"/>
<rect x="25" y="231" width="128" height="9" rx="4.5" fill="#E6AF2E"/>
<rect x="292" y="83" width="255" height="198" rx="10" fill="#E6AF2E"/>
<circle cx="37.5" cy="34.5" r="5.5" fill="#525252"/>
<circle cx="53.5" cy="34.5" r="5.5" fill="#525252"/>
<circle cx="69.5" cy="34.5" r="5.5" fill="#525252"/>
</svg>
