<svg width="117" height="168" viewBox="0 0 117 168" fill="none" xmlns="http://www.w3.org/2000/svg">
<rect x="2.5" y="2.5" width="111.302" height="162.33" rx="12.5" fill="white" stroke="#525252" stroke-width="5"/>
<rect x="9" y="12" width="98" height="11" rx="5.5" fill="#E6AF2E"/>
<rect x="9" y="91.1523" width="98" height="4" rx="2" fill="#E6AF2E"/>
<rect x="9" y="98.1523" width="98" height="5" rx="2.5" fill="#E6AF2E"/>
<rect x="9" y="106.152" width="98" height="4" rx="2" fill="#E6AF2E"/>
<rect x="9" y="113.152" width="98" height="5" rx="2.5" fill="#E6AF2E"/>
<rect x="9" y="129.152" width="49" height="4" rx="2" fill="#E6AF2E"/>
<rect x="9" y="136.152" width="98" height="4" rx="2" fill="#E6AF2E"/>
<rect x="9" y="143.152" width="49" height="5" rx="2.5" fill="#E6AF2E"/>
<rect x="9" y="29" width="98" height="54" rx="10" fill="#E6AF2E"/>
<circle cx="15.1278" cy="17.1278" r="3.1278" fill="#525252"/>
<circle cx="24.2268" cy="17.1278" r="3.1278" fill="#525252"/>
<circle cx="33.3258" cy="17.1278" r="3.1278" fill="#525252"/>
</svg>
