<svg width="329" height="178" viewBox="0 0 329 178" fill="none" xmlns="http://www.w3.org/2000/svg">
<rect x="2.5" y="2.5" width="323.703" height="173" rx="12.5" fill="white" stroke="#525252" stroke-width="5"/>
<rect x="14.2173" y="14.2173" width="296.856" height="11.3738" rx="5.6869" fill="#E6AF2E"/>
<rect x="14.2173" y="47.2012" width="144.447" height="4.54952" rx="2.27476" fill="#E6AF2E"/>
<rect x="14.2173" y="55.1628" width="144.447" height="4.54952" rx="2.27476" fill="#E6AF2E"/>
<rect x="14.2173" y="63.1245" width="144.447" height="4.54952" rx="2.27476" fill="#E6AF2E"/>
<rect x="14.2173" y="71.0862" width="144.447" height="4.54952" rx="2.27476" fill="#E6AF2E"/>
<rect x="14.2173" y="79.0479" width="144.447" height="5.11821" rx="2.55911" fill="#E6AF2E"/>
<rect x="14.2173" y="87.0095" width="72.7923" height="5.11821" rx="2.55911" fill="#E6AF2E"/>
<rect x="14.2173" y="123.406" width="144.447" height="4.54952" rx="2.27476" fill="#E6AF2E"/>
<rect x="14.2173" y="131.367" width="72.7923" height="5.11821" rx="2.55911" fill="#E6AF2E"/>
<rect x="166.057" y="47.2012" width="145.016" height="112.601" rx="10" fill="#E6AF2E"/>
<circle cx="21.1278" cy="20.1278" r="3.1278" fill="#525252"/>
<circle cx="30.2268" cy="20.1278" r="3.1278" fill="#525252"/>
<circle cx="39.3258" cy="20.1278" r="3.1278" fill="#525252"/>
</svg>
